<svg width="80" height="37" viewBox="0 0 80 37" fill="none" xmlns="http://www.w3.org/2000/svg">
<path d="M79.3889 16.5781L63.4028 0.608992C62.5908 -0.202997 61.2883 -0.202997 60.4763 0.608992C59.6643 1.42098 59.6643 2.72355 60.4763 3.53554L72.9268 15.986H2.08072C0.930404 15.986 0 16.9164 0 18.0668C0 19.2171 0.930404 20.1475 2.08072 20.1475H72.9268L60.4763 32.5642C59.6643 33.3761 59.6643 34.6787 60.4763 35.4907C60.8823 35.8967 61.4067 36.0997 61.948 36.0997C62.4893 36.0997 63.0138 35.8967 63.4198 35.4907L79.4058 19.5047C80.2009 18.7096 80.2009 17.3901 79.3889 16.5781Z" fill="black"/>
</svg>
