<svg width="35" height="35" viewBox="0 0 35 35" fill="none" xmlns="http://www.w3.org/2000/svg">
<path d="M29.116 20.0508H18.0323L22.0884 15.9949C24.623 13.46 24.623 9.33549 22.0884 6.80059L21.7207 6.43296L11.3913 16.7626V9.15879C11.3913 7.45568 10.6978 5.89599 9.38574 4.6485C8.40834 3.71923 7.43189 3.28918 7.39081 3.27133L7.18368 3.18137L6.97655 3.27133C6.93547 3.28924 5.95896 3.71923 4.98155 4.6485C3.66939 5.89599 2.97589 7.45561 2.97589 9.15879V20.8229C1.20032 21.837 0 23.7477 0 25.9347C0 29.1791 2.63956 31.8187 5.88396 31.8187H12.4231V30.779H5.88396C3.21282 30.779 1.03968 28.6059 1.03968 25.9347C1.03968 24.0168 2.16009 22.3558 3.78068 21.5713C3.78431 21.5696 3.78772 21.5679 3.79128 21.5662C4.28224 21.3302 4.81865 21.1744 5.38378 21.1162C5.38781 21.1158 5.39178 21.1154 5.39574 21.115C5.47251 21.1073 5.54989 21.1014 5.62769 21.0973C5.635 21.0969 5.64238 21.0967 5.64963 21.0964C5.72735 21.0926 5.80535 21.0904 5.88396 21.0904H10.3516H11.3913H16.9927H29.1161C31.7872 21.0904 33.9604 23.2636 33.9604 25.9347C33.9604 28.6059 31.7873 30.779 29.1161 30.779H13.8093V31.8187H29.116C32.3604 31.8187 35 29.1791 35 25.9347C35 22.6903 32.3604 20.0508 29.116 20.0508ZM10.3516 17.8023V20.0508H9.11955V18.479H8.07987V20.0508H5.88396C5.79031 20.0508 5.69734 20.0536 5.60458 20.0579C5.58086 20.059 5.55741 20.0608 5.53383 20.0622C5.46109 20.0665 5.38856 20.0719 5.31638 20.0787C5.29546 20.0807 5.27468 20.0828 5.25383 20.085C5.16961 20.094 5.08573 20.1046 5.00233 20.1171C4.99632 20.118 4.99023 20.1186 4.98415 20.1196C4.70114 20.163 4.42278 20.2274 4.14976 20.312C4.13998 20.315 4.13027 20.318 4.1205 20.3211C4.08557 20.3321 4.05036 20.3423 4.01557 20.3541V9.15879C4.01557 7.73841 4.57331 6.48231 5.67335 5.42541C6.26992 4.85228 6.87586 4.49196 7.18368 4.32824C7.49185 4.49216 8.09758 4.85249 8.69394 5.42541C9.79392 6.48224 10.3517 7.73841 10.3517 9.15879V17.8023H10.3516ZM16.562 20.0509H11.3912V20.0508V18.2329L21.7033 7.92073C23.4751 10.0642 23.3584 13.2543 21.3531 15.2599L16.562 20.0509Z" fill="#647588"/>
<path d="M5.1521 25.9347C5.1521 27.0549 6.0634 27.9662 7.18367 27.9662C8.30381 27.9662 9.21504 27.0549 9.21504 25.9347C9.21504 24.8145 8.30381 23.9032 7.18367 23.9032C6.0634 23.9032 5.1521 24.8145 5.1521 25.9347ZM8.17529 25.9347C8.17529 26.4816 7.73041 26.9265 7.18354 26.9265C6.63659 26.9265 6.19164 26.4816 6.19164 25.9347C6.19164 25.3878 6.63659 24.9428 7.18354 24.9428C7.73041 24.9428 8.17529 25.3878 8.17529 25.9347Z" fill="#647588"/>
<path d="M9.11982 8.57848H8.08014V16.3994H9.11982V8.57848Z" fill="#647588"/>
<path d="M29.5213 28.6992H13.7636V29.7389H29.5213V28.6992Z" fill="#647588"/>
</svg>
