<svg width="35" height="35" viewBox="0 0 35 35" fill="none" xmlns="http://www.w3.org/2000/svg">
<g clip-path="url(#clip0)">
<path d="M17.5136 0.000960113H20.4302C26.4678 0.00779586 31.3606 4.90055 31.3674 10.9382V12.1639L34.9227 18.6066C34.9819 18.7145 35.013 18.8356 35.0131 18.9588C35.0143 19.0002 35.0143 19.0417 35.0131 19.0831C34.9788 20.2569 33.9994 21.1806 32.8257 21.1462C32.2954 21.1757 31.7866 21.3662 31.3674 21.6923V24.0627C31.369 24.1184 31.369 24.1742 31.3674 24.23C31.3212 25.7946 30.0154 27.0256 28.4508 26.9793H24.0759C24.0345 26.9806 23.993 26.9806 23.9516 26.9793C22.7778 26.945 21.8541 25.9657 21.8885 24.7919V20.417H23.3467V24.7919C23.3425 24.8352 23.3425 24.8789 23.3467 24.9223C23.3828 25.289 23.7092 25.557 24.0759 25.5211H28.4508C28.509 25.5248 28.5673 25.5248 28.6255 25.5211C29.3826 25.4728 29.9573 24.8199 29.9091 24.0628V21.3446C29.909 21.1357 29.9985 20.9369 30.1548 20.7985C30.8861 20.1247 31.8322 19.7313 32.8257 19.688C32.8289 19.6884 32.8322 19.6887 32.8354 19.6891C33.1869 19.7263 33.5022 19.4716 33.5395 19.1199L29.9995 12.7034C29.9403 12.5955 29.9092 12.4744 29.9091 12.3512V10.9382C29.903 5.7056 25.6627 1.46525 20.4301 1.45923H17.5223C17.4779 1.45451 17.4331 1.45424 17.3887 1.45841C17.0203 1.49307 16.7497 1.81989 16.7844 2.18833V5.83404H15.3261V2.1884C15.3249 2.14698 15.3249 2.10548 15.3261 2.06406C15.3605 0.890291 16.3398 -0.0334237 17.5136 0.000960113Z" fill="#647588"/>
<path d="M5.11805 21.8753H13.1387V23.3336H5.11812C5.07478 23.3294 5.0311 23.3294 4.98776 23.3336C4.62102 23.3696 4.35292 23.6961 4.38895 24.0628V25.4409C4.49395 25.8762 5.19687 28.4377 7.30556 28.4377C7.70825 28.4377 8.03473 28.7641 8.03473 29.1668V33.5417H21.8885V31.3543H23.3467V34.2709C23.3467 34.6736 23.0203 35.0001 22.6176 35.0001H7.30549C6.9028 35.0001 6.57632 34.6736 6.57632 34.2709V29.8318C4.29701 29.4009 3.2106 26.9961 2.94517 25.6669C2.93539 25.6189 2.93054 25.5701 2.93061 25.5211V24.0629C2.92938 24.0214 2.92938 23.9799 2.93061 23.9385C2.96493 22.7647 3.94428 21.841 5.11805 21.8753Z" fill="#647588"/>
<path d="M0.743172 8.75071H2.58137C2.65855 8.53409 2.74687 8.32163 2.84605 8.11417L1.54528 6.81339C1.26064 6.52868 1.26064 6.06713 1.54528 5.78236L3.60803 3.7196C3.89274 3.43496 4.35429 3.43496 4.63907 3.7196L5.93985 5.02038C6.14738 4.9216 6.35983 4.83355 6.57639 4.75645V2.91749C6.57639 2.5148 6.90287 2.18832 7.30556 2.18832H10.2221C10.6248 2.18832 10.9513 2.5148 10.9513 2.91749V4.75638C11.3483 4.89658 11.7307 5.07506 12.0931 5.28936L11.3523 6.54495C10.9423 6.30358 10.5005 6.12073 10.0399 6.00172C9.71797 5.91859 9.49307 5.62835 9.493 5.29592V3.64666H8.03473V5.29599C8.03514 5.62828 7.81086 5.9188 7.48931 6.00254C7.02864 6.12155 6.58685 6.3044 6.17684 6.54577C5.89029 6.7151 5.52546 6.66888 5.29018 6.43346L4.12352 5.2668L3.0918 6.29634L4.25846 7.46299C4.49408 7.69808 4.54057 8.06297 4.37145 8.34966C4.1296 8.7596 3.94627 9.20139 3.82678 9.66212C3.74372 9.98375 3.45382 10.2086 3.12167 10.209H1.47234V11.6666H3.12024C3.45238 11.667 3.74229 11.8918 3.82534 12.2134C3.94483 12.6742 4.12817 13.116 4.37002 13.5259C4.53913 13.8126 4.49265 14.1774 4.25702 14.4126L3.09036 15.5792L4.1214 16.6103L5.28806 15.4436C5.52334 15.2082 5.88817 15.162 6.17472 15.3313C6.58473 15.5727 7.02653 15.7555 7.48719 15.8745C7.80908 15.9576 8.03398 16.2479 8.03405 16.5803V18.2296H9.49232V16.5811C9.49239 16.2486 9.71728 15.9583 10.0392 15.8753C10.4998 15.7563 10.9416 15.5734 11.3516 15.332C11.6382 15.1627 12.003 15.2089 12.2383 15.4443L13.4048 16.6109L14.4359 15.5798L13.2692 14.4132C13.0336 14.1781 12.987 13.8132 13.1562 13.5265C13.3981 13.1166 13.5814 12.6748 13.7009 12.214C13.7839 11.8924 14.0738 11.6676 14.406 11.6672H16.7844V13.1255H14.9455C14.8686 13.3421 14.7805 13.5545 14.6816 13.762L15.9824 15.0628C16.267 15.3475 16.267 15.809 15.9824 16.0938L13.9196 18.1566C13.6349 18.4412 13.1734 18.4412 12.8886 18.1566L11.5878 16.8558C11.3803 16.9546 11.1678 17.0426 10.9513 17.1197V18.9586C10.9513 19.3613 10.6248 19.6878 10.2221 19.6878H7.30549C6.9028 19.6878 6.57632 19.3613 6.57632 18.9586V17.1204C6.35977 17.0433 6.14731 16.9552 5.93978 16.8565L4.639 18.1566C4.35429 18.4412 3.89274 18.4412 3.60797 18.1566L1.54521 16.0938C1.26057 15.8091 1.26057 15.3476 1.54521 15.0628L2.84674 13.762C2.74755 13.5545 2.65923 13.3421 2.58206 13.1255H0.743172C0.340477 13.1255 0.0140038 12.799 0.0140038 12.3963V9.47981C0.0140705 9.07712 0.340477 8.75071 0.743172 8.75071Z" fill="#647588"/>
<path d="M8.76381 8.02155C10.3746 8.02155 11.6804 9.32738 11.6804 10.9382C11.6804 12.5489 10.3747 13.8548 8.76381 13.8548C7.15303 13.8548 5.8472 12.5489 5.8472 10.9382C5.8472 9.32738 7.15297 8.02155 8.76381 8.02155ZM8.76381 12.3964C9.5692 12.3964 10.2221 11.7435 10.2221 10.9382C10.2221 10.1328 9.5692 9.47988 8.76381 9.47988C7.95842 9.47988 7.30554 10.1328 7.30554 10.9382C7.30547 11.7435 7.95835 12.3964 8.76381 12.3964Z" fill="#647588"/>
<path d="M24.0759 11.6673V12.3964H26.2633V11.6673H27.7216V12.3964C27.722 12.4166 27.722 12.4367 27.7216 12.4569C27.7049 13.2456 27.0521 13.8714 26.2633 13.8547H24.0759C24.0557 13.8551 24.0356 13.8551 24.0155 13.8547C23.2268 13.838 22.601 13.1851 22.6176 12.3964V11.6673H24.0759Z" fill="#647588"/>
<path d="M14.597 20.417C15.8051 20.417 16.7844 21.3964 16.7844 22.6045C16.7844 23.8125 15.8051 24.7919 14.597 24.7919C13.3889 24.7919 12.4095 23.8125 12.4095 22.6045C12.4095 21.3964 13.3889 20.417 14.597 20.417ZM14.597 23.3336C14.9997 23.3336 15.3262 23.0072 15.3262 22.6045C15.3262 22.2018 14.9997 21.8753 14.597 21.8753C14.1943 21.8753 13.8678 22.2018 13.8678 22.6045C13.8678 23.0072 14.1943 23.3336 14.597 23.3336Z" fill="#647588"/>
<path d="M22.6176 16.7713C23.8256 16.7713 24.805 17.7507 24.805 18.9587C24.805 20.1668 23.8256 21.1462 22.6176 21.1462C21.4095 21.1462 20.4301 20.1668 20.4301 18.9587C20.4301 17.7507 21.4095 16.7713 22.6176 16.7713ZM22.6176 19.6879C23.0202 19.6879 23.3467 19.3614 23.3467 18.9587C23.3467 18.556 23.0202 18.2296 22.6176 18.2296C22.2149 18.2296 21.8884 18.556 21.8884 18.9587C21.8885 19.3614 22.2149 19.6879 22.6176 19.6879Z" fill="#647588"/>
<path d="M16.0552 5.10495C17.2633 5.10495 18.2427 6.08431 18.2427 7.29239C18.2427 8.50047 17.2633 9.47983 16.0552 9.47983C14.8472 9.47983 13.8678 8.50047 13.8678 7.29239C13.8678 6.08431 14.8472 5.10495 16.0552 5.10495ZM16.0552 8.02156C16.4579 8.02156 16.7844 7.69508 16.7844 7.29239C16.7844 6.8897 16.4579 6.56322 16.0552 6.56322C15.6525 6.56322 15.3261 6.8897 15.3261 7.29239C15.3261 7.69508 15.6525 8.02156 16.0552 8.02156Z" fill="#647588"/>
<path d="M18.2427 11.6673H19.701V13.1255H18.2427V11.6673Z" fill="#647588"/>
<path d="M18.2427 14.5839H19.701V16.0421H18.2427V14.5839Z" fill="#647588"/>
<path d="M21.8885 28.4377H23.3467V29.896H21.8885V28.4377Z" fill="#647588"/>
</g>
<defs>
<clipPath id="clip0">
<rect width="35" height="35" fill="white" transform="matrix(-1 0 0 1 35 0)"/>
</clipPath>
</defs>
</svg>
