<svg width="35" height="35" viewBox="0 0 35 35" fill="none" xmlns="http://www.w3.org/2000/svg">
<g clip-path="url(#clip0)">
<path d="M21.9668 4.36106C18.1169 2.41569 13.4793 3.15951 10.427 6.21189C6.87947 9.75934 6.52441 15.4158 9.60113 19.3693C9.70989 19.509 9.87245 19.5822 10.0368 19.5822C10.1552 19.5822 10.2745 19.5443 10.3752 19.4658C10.6156 19.2787 10.6588 18.9322 10.4718 18.6918C7.73608 15.1766 8.05224 10.1467 11.2071 6.99188C13.9217 4.27718 18.0457 3.6156 21.4694 5.34557C21.7412 5.48311 22.073 5.37387 22.2104 5.10201C22.3477 4.83014 22.2388 4.49839 21.9668 4.36106Z" fill="white"/>
<path d="M26.3712 8.76636C26.2338 8.49449 25.9022 8.38539 25.6301 8.52266C25.3583 8.65999 25.2491 8.99167 25.3864 9.26367C27.1152 12.6868 26.4533 16.8103 23.7393 19.5242C20.5844 22.679 15.5546 22.995 12.0394 20.2595C11.7989 20.0725 11.4524 20.1157 11.2653 20.356C11.0782 20.5964 11.1215 20.943 11.3619 21.1301C13.1628 22.5316 15.3169 23.2209 17.4641 23.2209C20.0308 23.2209 22.5878 22.2358 24.5194 20.3041C27.5711 17.2526 28.3152 12.6159 26.3712 8.76636Z" fill="white"/>
<path d="M24.9461 6.6656C24.8095 6.51097 24.6659 6.35826 24.5194 6.21183C24.3729 6.06534 24.2203 5.92178 24.0657 5.78513C23.8374 5.58333 23.4888 5.60494 23.2872 5.83319C23.0853 6.06137 23.1068 6.40994 23.335 6.61167C23.4728 6.73335 23.6088 6.86132 23.7394 6.99181C23.8698 7.12238 23.9978 7.25835 24.1195 7.39609C24.2285 7.51941 24.3804 7.58237 24.533 7.58237C24.6629 7.58237 24.7931 7.53678 24.8981 7.44408C25.1264 7.24242 25.1479 6.89386 24.9461 6.6656Z" fill="white"/>
<path d="M30.4919 14.2468C30.8596 13.6434 30.8596 12.8939 30.4917 12.2906L29.7661 11.1007C29.6705 10.9439 29.6336 10.7577 29.6621 10.5764L29.8784 9.20216C29.9887 8.50181 29.701 7.80776 29.1277 7.3907L28.0031 6.57271C27.8544 6.46449 27.7487 6.30665 27.7055 6.12796L27.378 4.77451C27.2117 4.08702 26.6813 3.55669 25.9939 3.3903L24.6404 3.06272C24.4617 3.01945 24.3037 2.91376 24.1956 2.76508L23.3775 1.64023C22.9605 1.06696 22.2664 0.779102 21.5662 0.889434L20.1915 1.10572C20.0102 1.13423 19.824 1.09732 19.6673 1.00175L18.4771 0.275908C17.8738 -0.0920033 17.1243 -0.091935 16.521 0.275908L15.331 1.00154C15.1743 1.09718 14.9881 1.13396 14.8066 1.10552L13.4323 0.889229C12.7322 0.779034 12.038 1.06676 11.621 1.64002L10.803 2.7646C10.6948 2.91329 10.5369 3.01897 10.3582 3.06224L9.0047 3.38975C8.31735 3.556 7.78688 4.0864 7.62049 4.77383L7.29291 6.12734C7.24964 6.30604 7.14403 6.46402 6.99528 6.57209L5.87042 7.39022C5.29716 7.80714 5.0095 8.50113 5.11963 9.20147L5.33592 10.5762C5.36442 10.7576 5.32751 10.9438 5.23194 11.1005L4.50617 12.2907C4.13839 12.894 4.13839 13.6435 4.50624 14.2468L5.23187 15.4368C5.32744 15.5936 5.36442 15.7798 5.33585 15.9611L5.11956 17.3354C5.00929 18.0357 5.29702 18.7298 5.87028 19.1468L6.99486 19.9648C7.14355 20.0729 7.24923 20.2309 7.2925 20.4096L7.62001 21.763C7.78626 22.4505 8.31666 22.9808 9.00409 23.1472L9.56928 23.284L5.7443 31.8162C5.66302 31.9976 5.68551 32.2085 5.80329 32.3686C5.92101 32.5287 6.11563 32.6132 6.31305 32.5895L9.39073 32.2215L11.1637 34.7639C11.2675 34.9126 11.4368 34.9999 11.616 34.9999C11.6331 34.9999 11.6505 34.9991 11.6677 34.9975C11.8655 34.979 12.0382 34.8553 12.1194 34.6741L16.0258 25.9597L16.5208 26.2615C16.8225 26.4454 17.1607 26.5374 17.4989 26.5374C17.8372 26.5374 18.1753 26.4454 18.477 26.2615L18.9898 25.9488L22.9012 34.6741C22.9824 34.8554 23.155 34.979 23.3529 34.9975C23.3702 34.9992 23.3875 35 23.4046 35C23.5838 35 23.7532 34.9126 23.8569 34.764L25.6299 32.2216L28.7076 32.5896C28.9048 32.613 29.0996 32.5288 29.2173 32.3687C29.335 32.2086 29.3577 31.9977 29.2763 31.8163L25.4493 23.2794L25.9933 23.1478C26.6806 22.9815 27.2111 22.4511 27.3775 21.7637L27.7051 20.4102C27.7483 20.2315 27.854 20.0735 28.0027 19.9654L29.1276 19.1473C29.7008 18.7304 29.9885 18.0364 29.8783 17.336L29.6621 15.9613C29.6336 15.7799 29.6705 15.5937 29.766 15.437L30.4919 14.2468ZM11.5113 33.334L10.1062 31.3191C9.98976 31.1521 9.79056 31.0626 9.58836 31.087L7.14936 31.3786L10.6343 23.6045C10.698 23.6514 10.7551 23.7075 10.8022 23.7724L11.6203 24.8972C11.6981 25.0041 11.7854 25.1009 11.8807 25.1872L10.0464 29.279C9.92181 29.557 10.0461 29.8833 10.324 30.0079C10.3973 30.0408 10.474 30.0563 10.5493 30.0563C10.76 30.0563 10.9612 29.9349 11.0529 29.7302L12.8807 25.653C13.0605 25.6777 13.2457 25.6773 13.4316 25.648L14.8063 25.4317C14.8886 25.4188 14.9718 25.42 15.0528 25.4334L11.5113 33.334ZM27.8714 31.3785L25.4323 31.087C25.2299 31.0627 25.0309 31.1521 24.9144 31.3191L23.5094 33.334L19.9664 25.4303C20.0407 25.4202 20.1165 25.4202 20.1915 25.4319L21.5657 25.6482C21.7591 25.6786 21.9518 25.6777 22.1385 25.6499L23.9676 29.7304C24.0595 29.9351 24.2606 30.0565 24.4712 30.0565C24.5466 30.0565 24.6233 30.0409 24.6965 30.0081C24.9744 29.8835 25.0988 29.5571 24.9742 29.2791L23.1329 25.1718C23.2217 25.0893 23.3038 24.9981 23.377 24.8974L24.195 23.7728C24.2465 23.702 24.3097 23.6412 24.3807 23.592L27.8714 31.3785ZM29.5499 13.6725L28.8242 14.8627C28.5928 15.2423 28.5032 15.6934 28.5723 16.1326L28.7886 17.5074C28.8341 17.7964 28.7153 18.0829 28.4787 18.2551L27.3538 19.0733C26.9937 19.3352 26.7376 19.7178 26.6329 20.1506L26.3053 21.5041C26.2366 21.7879 26.0177 22.0068 25.7339 22.0756L24.3804 22.4031C23.9475 22.5078 23.5649 22.7639 23.3029 23.124L22.4849 24.2486C22.3128 24.4853 22.0264 24.604 21.7371 24.5584L20.3628 24.3421C19.9235 24.273 19.4724 24.3624 19.0927 24.594L17.9027 25.3196C17.6537 25.4714 17.3442 25.4714 17.0953 25.3196L15.905 24.5939C15.6091 24.4134 15.2697 24.3193 14.9263 24.3193C14.8293 24.3193 14.7317 24.3268 14.635 24.3421L13.2602 24.5584C12.9711 24.6039 12.6846 24.485 12.5125 24.2484L11.6943 23.1236C11.4324 22.7635 11.0497 22.5074 10.617 22.4027L9.26344 22.0751C8.97968 22.0064 8.76073 21.7875 8.69203 21.5037L8.36452 20.1503C8.25979 19.7174 8.00378 19.3347 7.6436 19.0727L6.51908 18.2547C6.28242 18.0825 6.16368 17.796 6.20921 17.5069L6.4255 16.1326C6.49461 15.6932 6.4052 15.2422 6.17366 14.8625L5.44803 13.6724C5.2962 13.4234 5.2962 13.1139 5.44803 12.8649L6.1738 11.6747C6.40526 11.295 6.49475 10.844 6.42564 10.4047L6.20935 9.03003C6.16389 8.74093 6.2827 8.45444 6.51929 8.28231L7.64421 7.46412C8.00426 7.20216 8.26034 6.81955 8.36506 6.38677L8.69264 5.03325C8.76134 4.74949 8.98023 4.53053 9.26406 4.46183L10.6176 4.13432C11.0504 4.0296 11.4331 3.77352 11.695 3.4134L12.513 2.28882C12.6851 2.05216 12.9715 1.93328 13.2608 1.97888L14.6351 2.19517C15.0745 2.26442 15.5256 2.17487 15.9053 1.94333L17.0952 1.2177C17.3442 1.06594 17.6538 1.06594 17.9026 1.2177L19.0929 1.9434C19.4725 2.175 19.9237 2.26449 20.3629 2.19531L21.7377 1.97902C22.0267 1.93369 22.3133 2.05237 22.4854 2.28896L23.3036 3.41381C23.5655 3.77386 23.9482 4.02994 24.3809 4.13467L25.7345 4.46224C26.0182 4.53094 26.2372 4.74983 26.3059 5.03366L26.6334 6.38711C26.7381 6.81996 26.9941 7.20271 27.3543 7.46466L28.4789 8.28265C28.7156 8.45478 28.8343 8.74134 28.7888 9.03044L28.5725 10.4047C28.5034 10.8441 28.5928 11.2951 28.8243 11.6749L29.5499 12.8649C29.7018 13.114 29.7018 13.4234 29.5499 13.6725Z" fill="white"/>
<path d="M23.9533 11.5526C23.8317 11.1784 23.5135 10.9171 23.1228 10.8707L19.8039 10.4772L18.404 7.44237C18.2392 7.08512 17.8924 6.86316 17.4989 6.86316C17.1055 6.86316 16.7586 7.08512 16.5938 7.44237L15.194 10.4773L11.875 10.8708C11.4843 10.9172 11.166 11.1784 11.0445 11.5526C10.923 11.9266 11.0269 12.3251 11.3157 12.5922L13.7694 14.8614L13.1181 18.1395C13.0415 18.5254 13.1916 18.9088 13.5099 19.14C13.6855 19.2675 13.8893 19.3321 14.0944 19.3321C14.2611 19.3321 14.4286 19.2895 14.5825 19.2033L17.4988 17.571L20.4152 19.2033C20.7586 19.3956 21.1695 19.3713 21.4878 19.14C21.8062 18.9088 21.9563 18.5254 21.8796 18.1395L21.2283 14.8614L23.682 12.5922C23.9709 12.3252 24.0748 11.9268 23.9533 11.5526ZM20.2527 14.2612C20.1119 14.3914 20.0489 14.5855 20.0862 14.7736L20.7527 18.1281L17.7682 16.4576C17.6846 16.4107 17.5917 16.3873 17.4988 16.3873C17.4059 16.3873 17.3132 16.4107 17.2294 16.4576L14.245 18.1281L14.9115 14.7736C14.949 14.5854 14.8859 14.3914 14.745 14.2612L12.234 11.939L15.6305 11.5363C15.821 11.5137 15.986 11.3938 16.0664 11.2196L17.4989 8.114L18.9314 11.2196C19.0118 11.3938 19.1768 11.5137 19.3673 11.5363L22.7637 11.939L20.2527 14.2612Z" fill="white"/>
</g>
<defs>
<clipPath id="clip0">
<rect width="35" height="35" fill="white"/>
</clipPath>
</defs>
</svg>
