<svg width="35" height="35" viewBox="0 0 35 35" fill="none" xmlns="http://www.w3.org/2000/svg">
<path d="M33.5109 0.15845C33.3735 0.0381776 33.1921 -0.0165496 33.0088 0.00508672L13.2816 2.55754C12.9646 2.59891 12.7273 2.86809 12.7273 3.18818V7.01718V9.69754V25.851C11.5653 24.4542 9.71919 23.5455 7.63637 23.5455C4.12746 23.5455 1.27274 26.1145 1.27274 29.2727C1.27274 32.431 4.12746 35 7.63637 35C11.1453 35 14 32.431 14 29.2727C14 29.1251 13.9879 28.98 13.9752 28.8355C13.9835 28.7942 14 28.7566 14 28.7134V10.2569L32.4546 7.86863V19.4867C31.2926 18.0905 29.4465 17.1818 27.3636 17.1818C23.8547 17.1818 21 19.7508 21 22.9091C21 26.0674 23.8547 28.6364 27.3636 28.6364C30.8407 28.6364 33.6719 26.1125 33.7228 22.9937C33.7228 22.9855 33.7273 22.9785 33.7273 22.9702V7.14445V4.46472V0.636359C33.7273 0.453087 33.6484 0.278723 33.5109 0.15845ZM7.63637 33.7273C4.82937 33.7273 2.54546 31.7285 2.54546 29.2727C2.54546 26.817 4.82937 24.8182 7.63637 24.8182C10.4434 24.8182 12.7273 26.817 12.7273 29.2727C12.7273 31.7285 10.4434 33.7273 7.63637 33.7273ZM27.3636 27.3636C24.5566 27.3636 22.2727 25.3648 22.2727 22.9091C22.2727 20.4534 24.5566 18.4545 27.3636 18.4545C30.1706 18.4545 32.4546 20.4534 32.4546 22.9091C32.4546 25.3648 30.1706 27.3636 27.3636 27.3636ZM14 8.97336V7.01718V3.74754L32.4546 1.3599V4.46472V6.58509L14 8.97336Z" fill="#647588"/>
</svg>
