<svg width="22" height="21" viewBox="0 0 22 21" fill="none" xmlns="http://www.w3.org/2000/svg">
<path d="M21.1373 9.38089C21.5626 8.96642 21.7127 8.35813 21.5293 7.79268C21.3454 7.22722 20.8665 6.82357 20.2781 6.73791L15.0466 5.97776C14.8238 5.94531 14.6313 5.80557 14.5318 5.60353L12.1929 0.863546C11.9303 0.330968 11.3973 0 10.8033 0C10.2097 0 9.67672 0.330968 9.41411 0.863546L7.07484 5.60396C6.97533 5.806 6.78238 5.94574 6.55957 5.97819L1.32811 6.73834C0.740154 6.82357 0.260791 7.22765 0.0769198 7.79311C-0.106519 8.35857 0.0436067 8.96686 0.46889 9.38132L4.25404 13.0709C4.41541 13.2283 4.48939 13.455 4.45132 13.6766L3.55836 18.8864C3.47918 19.345 3.59946 19.791 3.89625 20.1428C4.35744 20.6909 5.16258 20.8579 5.80634 20.5196L10.4849 18.0596C10.6804 17.9571 10.9266 17.9579 11.1217 18.0596L15.8007 20.5196C16.0283 20.6394 16.271 20.7 16.5215 20.7C16.9788 20.7 17.4123 20.4967 17.7104 20.1428C18.0076 19.791 18.1274 19.3441 18.0483 18.8864L17.1549 13.6766C17.1168 13.4546 17.1908 13.2283 17.3522 13.0709L21.1373 9.38089Z" fill="#FF6B29"/>
</svg>
