<svg width="35" height="35" viewBox="0 0 35 35" fill="none" xmlns="http://www.w3.org/2000/svg">
<g clip-path="url(#clip0)">
<path d="M29.7364 15.1888C29.4921 14.5033 28.8425 14.046 28.1147 14.0473C27.3877 14.0496 26.7407 14.5091 26.4991 15.1949H22.9508V12.8998H25.2459C25.5627 12.8999 25.8196 12.6431 25.8197 12.3263C25.8197 12.3262 25.8197 12.3261 25.8197 12.326V9.92522C26.716 9.60836 27.1857 8.62492 26.8689 7.72854C26.552 6.83224 25.5686 6.36247 24.6722 6.67933C23.7758 6.9962 23.3061 7.97964 23.623 8.87601C23.7963 9.36623 24.1819 9.75187 24.6721 9.92522V11.7523H22.9508V10.6048C22.9509 10.288 22.6941 10.0311 22.3773 10.031C22.3772 10.031 22.3771 10.031 22.377 10.031H21.2295V7.0563C22.1258 6.73944 22.5956 5.75599 22.2787 4.85962C21.9618 3.96332 20.9784 3.49354 20.082 3.81041C19.1857 4.12727 18.7159 5.11072 19.0328 6.00709C19.2061 6.4973 19.5917 6.88295 20.082 7.0563V10.0309H17.7869V0.870768C17.7869 0.553975 17.5302 0.297069 17.2134 0.296997C17.2133 0.296997 17.2132 0.296997 17.2131 0.296997C10.1349 0.296997 4.59015 5.4217 4.59015 11.9635C4.59015 15.071 5.82368 19.1855 7.80979 22.7004C8.16646 23.3313 8.63179 23.9947 9.1243 24.6974C10.1658 26.1819 11.3248 27.8514 11.4508 29.3046C11.0097 29.6164 10.7516 30.1264 10.7616 30.6665C10.7632 31.0544 10.8972 31.4302 11.1413 31.7317C10.8017 32.0668 10.6118 32.5248 10.6147 33.0019C10.6157 33.9522 11.3858 34.7222 12.3361 34.7232H22.0901C23.0468 34.7173 23.8176 33.9369 23.8117 32.9803C23.8116 32.974 23.8115 32.9678 23.8115 32.9615C23.8111 32.4948 23.6204 32.0485 23.2834 31.7256C23.5307 31.4125 23.665 31.0251 23.6646 30.6261C23.6629 29.7173 22.9248 28.982 22.0161 28.9837C21.9918 28.9838 21.9676 28.9844 21.9433 28.9855H17.7869V18.0637H18.9344V19.785C18.9343 20.1018 19.1911 20.3587 19.5079 20.3587C19.508 20.3587 19.5081 20.3587 19.5082 20.3587H21.2295V21.0382C20.3332 21.3551 19.8635 22.3386 20.1804 23.2348C20.4974 24.1311 21.4808 24.6008 22.377 24.2839C23.2733 23.967 23.743 22.9835 23.4261 22.0873C23.2528 21.5971 22.8672 21.2115 22.377 21.0382V19.785C22.3771 19.4682 22.1203 19.2113 21.8035 19.2112C21.8035 19.2112 21.8033 19.2112 21.8033 19.2112H20.082V18.0637H22.377C22.6938 18.0637 22.9507 17.807 22.9508 17.4902C22.9508 17.4901 22.9508 17.49 22.9508 17.4899V16.3423H26.4992C26.8178 17.2363 27.8007 17.7027 28.6946 17.3841C29.5885 17.0656 30.0549 16.0827 29.7364 15.1888ZM25.2459 7.73579C25.5627 7.73579 25.8197 7.99269 25.8197 8.30956C25.8197 8.62642 25.5627 8.88333 25.2459 8.88333C24.929 8.88333 24.6721 8.62642 24.6721 8.30956C24.6724 7.99284 24.9292 7.73615 25.2459 7.73579ZM10.0639 24.0384C9.58762 23.3593 9.138 22.7183 8.8088 22.1356C6.94325 18.8336 5.73769 14.8407 5.73769 11.9635C5.73769 6.24147 10.4811 1.72188 16.6393 1.45687V5.46523C16.487 5.47664 16.3316 5.49048 16.1653 5.51085C15.9218 5.54047 15.724 5.72178 15.6734 5.96191L15.4985 6.79344C15.3545 6.82765 15.2109 6.86631 15.0676 6.90942L14.4958 6.27174C14.332 6.08849 14.0696 6.03011 13.8436 6.12665C13.2014 6.40356 12.5953 6.75751 12.0385 7.18059C11.8425 7.32834 11.7622 7.58446 11.8387 7.81769L12.1021 8.62011C11.9937 8.7221 11.8881 8.82796 11.7858 8.93612L10.9842 8.67276C10.7511 8.59723 10.4956 8.6772 10.3471 8.87221C9.92349 9.42913 9.56926 10.0355 9.29234 10.6782C9.19595 10.9042 9.25433 11.1665 9.43743 11.3304L10.0754 11.9019C10.0325 12.0437 9.99413 12.1858 9.96028 12.3283L9.068 12.5065C8.79976 12.56 8.60661 12.7955 8.60661 13.0691V15.0256C8.60661 15.2992 8.79976 15.5347 9.06807 15.5882L9.96035 15.7664C9.99428 15.9086 10.0326 16.0508 10.0755 16.1927L9.43729 16.7643C9.2544 16.9283 9.19609 17.1905 9.2922 17.4165C9.56919 18.0591 9.92335 18.6655 10.347 19.2225C10.4953 19.4177 10.7509 19.4977 10.9841 19.4219L11.7857 19.1586C11.8882 19.2667 11.9935 19.3726 12.102 19.4746L11.8386 20.2758C11.7621 20.509 11.8422 20.765 12.038 20.9129C12.5948 21.3367 13.2012 21.691 13.8437 21.968C14.0698 22.064 14.3318 22.0057 14.4959 21.8229L15.0678 21.1853C15.2109 21.2284 15.3546 21.2671 15.4987 21.3012L15.6732 22.1322C15.7237 22.3725 15.9215 22.5541 16.1652 22.5838C16.3316 22.6042 16.4871 22.618 16.6395 22.6294V28.9855H12.5736C12.339 27.2945 11.1412 25.5745 10.0639 24.0384ZM12.0492 14.0473C12.0528 16.6754 14.0277 18.8826 16.6393 19.1773V21.1505L16.5444 20.6988C16.4965 20.4701 16.3146 20.2933 16.0846 20.2517C15.7445 20.1898 15.4102 20.0997 15.0851 19.9822C15.0227 19.96 14.957 19.9487 14.8909 19.9486C14.7278 19.9486 14.5724 20.0181 14.4637 20.1396L13.9241 20.7414C13.6251 20.5921 13.3366 20.4226 13.0604 20.2344L13.3095 19.4763C13.3824 19.2541 13.3133 19.01 13.1349 18.8588C12.8703 18.6348 12.6247 18.3893 12.4006 18.1248C12.2491 17.9476 12.0057 17.879 11.7839 17.9511L11.0261 18.2005C10.8378 17.9242 10.6683 17.6356 10.5188 17.3365L11.1211 16.7969C11.2948 16.6409 11.3569 16.3953 11.2782 16.1755C11.1609 15.8503 11.0707 15.516 11.0087 15.1759C10.9668 14.9441 10.7874 14.7614 10.5562 14.7153L9.75408 14.555V13.5397L10.5562 13.3795C10.7873 13.3335 10.9668 13.1507 11.0087 12.9189C11.0707 12.5786 11.1609 12.244 11.2782 11.9186C11.357 11.6987 11.2947 11.4531 11.1207 11.2973L10.5189 10.7582C10.6686 10.4593 10.838 10.1706 11.026 9.89417L11.7841 10.1435C12.0058 10.2156 12.2491 10.1471 12.4007 9.96984C12.6254 9.70511 12.8712 9.45911 13.1356 9.23412C13.3133 9.08329 13.382 8.8398 13.3093 8.61832L13.0605 7.86023C13.3367 7.6721 13.6252 7.50269 13.924 7.35316L14.4635 7.95497C14.6196 8.12853 14.865 8.19072 15.0849 8.1124C15.41 7.99485 15.7444 7.90469 16.0845 7.84287C16.3144 7.80156 16.4962 7.62491 16.5442 7.39626L16.6393 6.94463V8.91718C14.0277 9.21196 12.0528 11.4191 12.0492 14.0473ZM16.6393 10.0767V18.0178C14.4464 17.7039 12.9232 15.6717 13.2372 13.4788C13.4897 11.715 14.8755 10.3292 16.6393 10.0767ZM22.6639 33.0019C22.6636 33.3186 22.4069 33.5754 22.0901 33.5757H12.3361C12.0134 33.5702 11.7562 33.3042 11.7616 32.9815C11.7618 32.9749 11.762 32.9682 11.7623 32.9615C11.7626 32.6448 12.0193 32.3881 12.3361 32.3878H22.0901C22.4128 32.3932 22.67 32.6592 22.6646 32.9819C22.6645 32.9886 22.6643 32.9952 22.6639 33.0019ZM21.9433 30.1331C22.2324 30.1064 22.4883 30.3192 22.515 30.6082C22.5167 30.6276 22.5175 30.647 22.5171 30.6665C22.5168 30.9832 22.2601 31.2399 21.9433 31.2402H12.4829C12.1602 31.2348 11.903 30.9688 11.9084 30.6461C11.9086 30.6394 11.9088 30.6327 11.9091 30.6261C11.9214 30.3401 12.1632 30.1181 12.4492 30.1305C12.4605 30.131 12.4717 30.1318 12.4829 30.133H21.9433V30.1331ZM21.8033 22.0801C22.1201 22.0801 22.377 22.337 22.377 22.6538C22.377 22.9707 22.1201 23.2276 21.8033 23.2276C21.4864 23.2276 21.2295 22.9707 21.2295 22.6538C21.2298 22.3371 21.4865 22.0804 21.8033 22.0801ZM20.6557 4.86694C20.9726 4.86694 21.2295 5.12384 21.2295 5.44071C21.2295 5.75757 20.9726 6.01448 20.6557 6.01448C20.3389 6.01448 20.082 5.75757 20.082 5.44071C20.0822 5.12399 20.339 4.86729 20.6557 4.86694ZM21.8033 16.9161H17.7869V11.1784H21.8033V16.9161ZM28.1147 16.3423C27.7979 16.3423 27.541 16.0854 27.541 15.7686C27.541 15.4517 27.7979 15.1948 28.1147 15.1948C28.4316 15.1948 28.6885 15.4517 28.6885 15.7686C28.6882 16.0854 28.4315 16.3421 28.1147 16.3423Z" fill="#647588"/>
<path d="M22.7465 26.5245C22.5442 26.8863 22.3652 27.2606 22.2106 27.6452L23.2775 28.0677C23.4142 27.7284 23.5724 27.3983 23.7512 27.0793L22.7465 26.5245Z" fill="#647588"/>
<path d="M24.0372 24.5034C23.8117 24.8273 23.5867 25.1568 23.3716 25.4896L24.3348 26.1127C24.5432 25.7911 24.7609 25.4728 24.9791 25.1591L24.0372 24.5034Z" fill="#647588"/>
<path d="M25.3426 22.5944C25.149 22.9015 24.9333 23.2192 24.7072 23.5453L25.6497 24.1998C25.8865 23.8591 26.1117 23.5268 26.3137 23.2052L25.3426 22.5944Z" fill="#647588"/>
<path d="M26.4192 20.5946C26.2547 20.9387 26.0828 21.2788 25.9034 21.615L26.9154 22.1563C27.1031 21.805 27.2829 21.4492 27.4547 21.0889L26.4192 20.5946Z" fill="#647588"/>
<path d="M27.3154 18.489C27.1821 18.8436 27.04 19.1989 26.8898 19.5513L27.9461 20.0007C28.1024 19.6325 28.2502 19.2631 28.3896 18.8924L27.3154 18.489Z" fill="#647588"/>
<path d="M29.8355 11.8492L28.6879 11.8581L28.6885 11.9635C28.6885 12.2834 28.6737 12.6235 28.644 12.9732L29.7876 13.0696C29.8198 12.688 29.8361 12.3159 29.8361 11.9635L29.8355 11.8492Z" fill="#647588"/>
<path d="M29.5433 9.40668L28.426 9.66781C28.5099 10.0265 28.5736 10.3896 28.6171 10.7554L29.7568 10.6198C29.7081 10.2118 29.6368 9.80681 29.5433 9.40668Z" fill="#647588"/>
<path d="M28.7185 7.08807L27.687 7.59012C27.8483 7.92155 27.9912 8.26165 28.1151 8.60878L29.1959 8.22443C29.058 7.83706 28.8987 7.45765 28.7185 7.08807Z" fill="#647588"/>
<path d="M27.4059 5.01038L26.5072 5.72422C26.7369 6.0134 26.951 6.31448 27.1487 6.62633L28.1186 6.01333C27.899 5.66663 27.6611 5.33183 27.4059 5.01038Z" fill="#647588"/>
<path d="M25.6863 3.25937L24.9551 4.14355C25.2404 4.37951 25.5133 4.62996 25.7729 4.89383L26.591 4.08918C26.3037 3.79735 26.0018 3.52043 25.6863 3.25937Z" fill="#647588"/>
<path d="M23.6563 1.89165L23.1105 2.90134C23.4383 3.07842 23.7591 3.27228 24.0639 3.47733L24.7044 2.5248C24.369 2.2996 24.0165 2.08666 23.6563 1.89165Z" fill="#647588"/>
<path d="M21.4072 0.939697L21.0598 2.03345C21.4172 2.14662 21.7689 2.27665 22.1053 2.41952L22.5541 1.36386C22.1846 1.20636 21.7986 1.06406 21.4072 0.939697Z" fill="#647588"/>
<path d="M19.0266 0.412964L18.8798 1.55154C19.2498 1.59916 19.6202 1.66364 19.9805 1.74375L20.2288 0.623107C19.8352 0.536253 19.4306 0.465607 19.0266 0.412964Z" fill="#647588"/>
<path d="M2.29506 31.2604H1.14752V32.4079H2.29506V31.2604Z" fill="#647588"/>
<path d="M2.29506 33.5555H1.14752V34.703H2.29506V33.5555Z" fill="#647588"/>
<path d="M3.44265 32.4079H2.2951V33.5555H3.44265V32.4079Z" fill="#647588"/>
<path d="M1.14754 32.4079H0V33.5555H1.14754V32.4079Z" fill="#647588"/>
<path d="M33.8524 0.276779H32.7049V1.42432H33.8524V0.276779Z" fill="#647588"/>
<path d="M33.8524 2.57185H32.7049V3.71939H33.8524V2.57185Z" fill="#647588"/>
<path d="M35 1.42432H33.8525V2.57186H35V1.42432Z" fill="#647588"/>
<path d="M32.7049 1.42432H31.5574V2.57186H32.7049V1.42432Z" fill="#647588"/>
</g>
<defs>
<clipPath id="clip0">
<rect width="35" height="35" fill="white"/>
</clipPath>
</defs>
</svg>
