<svg width="35" height="35" viewBox="0 0 35 35" fill="none" xmlns="http://www.w3.org/2000/svg">
<g clip-path="url(#clip0)">
<path d="M0.510685 16.0817C0.793831 16.0817 1.02338 16.3113 1.02338 16.5944V21.0881H33.9726V4.61476H7.25012C6.96698 4.61476 6.73742 4.38521 6.73742 4.10206C6.73742 3.81891 6.96698 3.58936 7.25012 3.58936H34.4853C34.7684 3.58936 34.998 3.81891 34.998 4.10206V24.2533C34.998 24.5364 34.7684 24.766 34.4853 24.766H28.6695C28.3863 24.766 28.1568 24.5364 28.1568 24.2533C28.1568 23.9701 28.3863 23.7406 28.6695 23.7406H33.9726V22.1454V22.1135H1.02338V22.1454V23.7406H26.3331C26.6163 23.7406 26.8458 23.9701 26.8458 24.2533C26.8458 24.5364 26.6163 24.766 26.3331 24.766H20.7254V28.5394H22.4202C22.7033 28.5394 22.9329 28.769 22.9329 29.0521V30.8979C22.9329 31.181 22.7033 31.4106 22.4202 31.4106H12.576C12.2928 31.4106 12.0633 31.181 12.0633 30.8979V29.0521C12.0633 28.769 12.2928 28.5394 12.576 28.5394H14.2707V24.766H0.510685C0.227539 24.766 -0.00201416 24.5364 -0.00201416 24.2533V16.5944C-0.00201416 16.3113 0.227539 16.0817 0.510685 16.0817ZM18.3184 24.766H16.6776V25.5684C16.6776 26.0207 17.0457 26.3887 17.498 26.3887C17.9503 26.3887 18.3184 26.0207 18.3184 25.5684V24.766ZM19.7 24.7659H19.3438V25.5683C19.3438 26.586 18.5158 27.4141 17.4981 27.4141C16.4803 27.4141 15.6522 26.5861 15.6522 25.5683V24.766H15.2961V28.5393H19.7V24.7659ZM13.0886 29.5647V30.3851H21.9074V29.5647H13.0886Z" fill="#647588"/>
<path d="M0.510682 3.58936H4.91372C5.19687 3.58936 5.42642 3.81891 5.42642 4.10206C5.42642 4.38521 5.19687 4.61476 4.91372 4.61476H1.02338V14.2581C1.02338 14.5413 0.793828 14.7708 0.510682 14.7708C0.227536 14.7708 -0.00201511 14.5413 -0.00201511 14.2581V4.10206C-0.00201511 3.81898 0.227536 3.58936 0.510682 3.58936Z" fill="#647588"/>
</g>
<defs>
<clipPath id="clip0">
<rect width="35" height="35" fill="white" transform="matrix(-1 0 0 1 35 0)"/>
</clipPath>
</defs>
</svg>
