<svg width="35" height="35" viewBox="0 0 35 35" fill="none" xmlns="http://www.w3.org/2000/svg">
<path d="M2.79256 16.9415H8.52891C8.57441 14.1536 8.95948 11.4594 9.62888 9.07066H5.8669C5.55838 9.07066 5.30839 8.82067 5.30839 8.51215C5.30839 8.20362 5.55838 7.95363 5.8669 7.95363H9.97098C10.5681 6.15411 11.3349 4.56377 12.2462 3.28776C12.4255 3.03673 12.7744 2.9785 13.0253 3.15782C13.2763 3.33706 13.3345 3.68594 13.1552 3.9369C12.3645 5.04409 11.6891 6.40917 11.1472 7.95363H16.9415V2.79255C16.9415 2.48403 17.1915 2.23404 17.5 2.23404C17.8085 2.23404 18.0585 2.48403 18.0585 2.79255V7.95363H23.8529C23.311 6.40917 22.6355 5.04409 21.8448 3.9369C21.6656 3.68594 21.7238 3.33706 21.9748 3.15782C22.2259 2.97857 22.5746 3.03681 22.7539 3.28776C23.6651 4.56377 24.432 6.15419 25.0291 7.95363H29.1332C29.4417 7.95363 29.6917 8.20362 29.6917 8.51215C29.6917 8.82067 29.4417 9.07066 29.1332 9.07066H25.3712C26.0405 11.4594 26.4256 14.1536 26.4712 16.9415H32.2075C32.516 16.9415 32.766 17.1915 32.766 17.5C32.766 17.8085 32.516 18.0585 32.2075 18.0585H26.4711C26.4256 20.8464 26.0405 23.5406 25.3711 25.9293H29.1332C29.4417 25.9293 29.6917 26.1793 29.6917 26.4878C29.6917 26.7964 29.4417 27.0464 29.1332 27.0464H25.0291C24.4319 28.8462 23.6648 30.4368 22.7534 31.713C22.6443 31.8656 22.4726 31.947 22.2984 31.947C22.1861 31.947 22.0726 31.9131 21.9742 31.8429C21.7232 31.6636 21.6651 31.3148 21.8443 31.0638C22.6352 29.9565 23.3108 28.5911 23.8529 27.0464H18.0585V32.2074C18.0585 32.516 17.8085 32.766 17.5 32.766C17.1915 32.766 16.9415 32.516 16.9415 32.2074V27.0464H11.1471C11.6891 28.5911 12.3648 29.9564 13.1557 31.0637C13.3349 31.3147 13.2768 31.6635 13.0258 31.8428C12.9274 31.9131 12.814 31.9469 12.7017 31.9469C12.5273 31.9469 12.3557 31.8655 12.2467 31.7129C11.3352 30.4367 10.5681 28.8461 9.97091 27.0463H5.86682C5.5583 27.0463 5.30831 26.7963 5.30831 26.4878C5.30831 26.1793 5.5583 25.9293 5.86682 25.9293H9.62888C8.95948 23.5405 8.57441 20.8464 8.52891 18.0584H2.79256C2.48404 18.0584 2.23405 17.8084 2.23405 17.4999C2.23405 17.1914 2.48404 16.9415 2.79256 16.9415ZM10.7874 9.07066C10.0939 11.43 9.69314 14.1314 9.64615 16.9415H16.9415V9.07066H10.7874ZM24.2126 9.07066H18.0585V16.9415H25.3539C25.3068 14.1313 24.9061 11.43 24.2126 9.07066ZM24.2126 25.9293C24.9061 23.57 25.3069 20.8686 25.3539 18.0585H18.0585V25.9293H24.2126ZM10.7874 25.9293H16.9415V18.0585H9.64615C9.69322 20.8687 10.0939 23.57 10.7874 25.9293Z" fill="#647588"/>
<path d="M5.12564 5.12564C8.43098 1.8203 12.8256 0 17.5 0C22.1744 0 26.569 1.8203 29.8744 5.12564C33.1797 8.43098 35 12.8256 35 17.5001C35 20.9458 34.0028 24.2691 32.1133 27.13L34.2519 33.5453C34.3188 33.746 34.2666 33.9673 34.117 34.1169C33.9674 34.2664 33.7462 34.3185 33.5453 34.2518L27.1299 32.1134C24.269 34.0028 20.9457 35 17.5 35C12.8256 35 8.43098 33.1797 5.12564 29.8744C1.8203 26.569 0 22.1744 0 17.5001C0 12.8256 1.8203 8.43098 5.12564 5.12564ZM17.5 33.883C20.8132 33.883 24.0052 32.8984 26.7311 31.0357C26.8251 30.9715 26.9351 30.9383 27.0462 30.9383C27.1056 30.9383 27.1652 30.9477 27.2229 30.967L32.8389 32.8389L30.9668 27.2229C30.9116 27.0572 30.9371 26.8753 31.0355 26.7311C32.8984 24.0053 33.883 20.8132 33.883 17.5001C33.883 8.46643 26.5336 1.11702 17.5 1.11702C8.46635 1.11702 1.11702 8.46643 1.11702 17.5001C1.11702 26.5336 8.46635 33.883 17.5 33.883Z" fill="#647588"/>
</svg>
